<svg id="Layer_1" data-name="Layer 1" xmlns="http://www.w3.org/2000/svg" viewBox="0 0 500 500"><defs><style>.cls-1{fill:#1e3244;}.cls-2,.cls-6,.cls-7{fill:#54c2f6;}.cls-3{fill:#1bdf00;}.cls-4{fill:#ff3b15;}.cls-5{fill:#fbb03b;}.cls-6{font-size:72px;font-family:LilitaOne, Lilita One;}.cls-7{font-size:24px;font-family:Delius-Regular, Delius;}.cls-8{letter-spacing:-0.03em;}</style></defs><circle class="cls-1" cx="250" cy="250" r="250"/><path class="cls-2" d="M249.83,248.7c-37.57,0-75.15-.21-112.72.14-11.43.1-16.37-6.56-16.39-16.19,0-14.54.13-29.07,7-42.38,14.3-27.82,36.94-43.44,68.45-44.48,19.53-.65,36.41,7.29,51.33,19.47,1.92,1.56,2.81,1.71,4.77,0,14.1-12.07,30.37-19.18,49-19.57,23.57-.48,43.22,8.7,59,26,12.37,13.62,18.88,29.75,19.05,48.28,0,4.74.18,9.48.1,14.23-.17,9-5.62,14.35-14.6,14.35q-57.49,0-115,0Zm53.66-24.26c13.3.25,24.27-10,24.52-23a23.87,23.87,0,0,0-23-24.55c-13.89-.37-24.71,10-24.91,23.78A23.61,23.61,0,0,0,303.49,224.44Zm-108.33-.07a23.32,23.32,0,0,0,24.09-22.87c.39-13.06-10.34-24.19-23.58-24.46a23.59,23.59,0,0,0-24.42,23.09C171,213.77,181.21,224.09,195.16,224.37Z"/><path class="cls-2" d="M76.11,265.74c12.11.42,22.08,7,28,19.52,1.31,2.75,2.76,3.66,5.8,3.65q51.87-.15,103.75,0c3.26,0,4.94-.82,6.24-4.11,4.83-12.16,16.31-19.17,30.3-19.08,13.23.09,25.34,8,29.94,19.9.89,2.32,1.87,3.22,4.45,3.21q53.19-.12,106.37,0c3,0,4.47-.9,5.75-3.77,6.64-14.89,22.53-22.31,38.48-18.3,14.39,3.61,24.6,18,23.84,33.57-.66,13.27-10.67,25.65-23.62,29.22-14.45,4-28.94-1.19-36.55-14.2-2.92-5-6.09-5.87-11.2-5.84-34.21.23-68.42.19-102.63.15-2.91,0-4.46.78-6,3.58-6.18,11.54-16.22,17.46-29.21,17.62-13.62.16-23.48-6.63-29.94-18.33-1.37-2.48-2.72-3.09-5.42-3.08q-53,.25-106,.13c-3.16,0-4.21,1.33-5.47,3.69A32.62,32.62,0,0,1,41.9,292.88C44.45,277.17,58.1,265.74,76.11,265.74Zm-1.84,46.13c8,.06,13.82-5.52,13.94-13.38.1-7-6.41-13.66-13.55-13.77-8-.12-14.2,5.9-14.1,13.71A13.73,13.73,0,0,0,74.27,311.87ZM250,284.65c-8.32,0-13.71,5.55-13.64,14a13.19,13.19,0,0,0,13.33,13.24,13.5,13.5,0,0,0,13.9-13.57A14,14,0,0,0,250,284.65Zm176.59.15c-8.09,0-13.43,5.53-13.37,13.8,0,7.46,5.58,13.16,12.81,13.22,8.24.06,14.15-5.71,14-13.7A13.68,13.68,0,0,0,426.6,284.8Z"/><path class="cls-2" d="M344,89.92c-.36,22.55-18.75,39.94-42,39.67-21.89-.25-40.11-18.75-39.71-40.33.43-23.48,18.57-40.8,42.34-40.44C326.49,49.15,344.35,67.82,344,89.92Z"/><path class="cls-2" d="M156.08,89.07c.15-22.75,18.26-40.36,41.41-40.27,22.06.09,40.06,18.56,39.9,41s-18.38,40-41,39.82A40.27,40.27,0,0,1,156.08,89.07Z"/><path class="cls-3" d="M303.49,224.44A23.61,23.61,0,0,1,280.1,200.7c.2-13.82,11-24.15,24.91-23.78a23.87,23.87,0,0,1,23,24.55C327.76,214.42,316.79,224.69,303.49,224.44Z"/><path class="cls-4" d="M195.16,224.37c-13.95-.28-24.14-10.6-23.91-24.24A23.59,23.59,0,0,1,195.67,177c13.24.27,24,11.4,23.58,24.46A23.32,23.32,0,0,1,195.16,224.37Z"/><path class="cls-4" d="M74.27,311.87a13.73,13.73,0,0,1-13.71-13.44c-.1-7.81,6.09-13.83,14.1-13.71,7.14.11,13.65,6.73,13.55,13.77C88.09,306.35,82.28,311.93,74.27,311.87Z"/><path class="cls-5" d="M250,284.65A14,14,0,0,1,263.6,298.3a13.5,13.5,0,0,1-13.9,13.57,13.19,13.19,0,0,1-13.33-13.24C236.3,290.2,241.69,284.68,250,284.65Z"/><path class="cls-3" d="M426.6,284.8a13.68,13.68,0,0,1,13.46,13.32c.13,8-5.78,13.76-14,13.7-7.23-.06-12.76-5.76-12.81-13.22C413.17,290.33,418.51,284.82,426.6,284.8Z"/><text class="cls-6" transform="translate(93.71 399.73)">LobbyLink</text><text class="cls-7" transform="translate(126.4 450.39)">VISI<tspan class="cls-8" x="49.27" y="0">T</tspan><tspan x="61.13" y="0">OR MANAGEMENT</tspan></text></svg>
